<svg width="490" height="501" viewBox="0 0 490 501" fill="none" xmlns="http://www.w3.org/2000/svg">
<path d="M237.932 409.613L198.306 458.102L249.924 493.556L297.891 441.417V396.057L368.279 365.295L409.99 305.335V249.025L459 192.716V152.569L409.99 114.508H361.501L351.073 106.165L304.669 91.5665L280.686 81.6601V63.4116L265.565 39.9491L248.881 58.1977L218.119 63.4116L172.758 70.711V49.8555L165.459 29L117.491 39.9491V63.4116L94.5503 81.6601L85.6867 75.4035H53.8821V132.756L8 145.269V184.373L61.1815 217.221L94.5503 202.622L110.192 231.82L152.946 244.333L160.766 276.138L187.357 293.343V356.431H208.213L237.932 409.613Z" fill="#2BB17A" stroke="#2BB17A" stroke-width="14.5988" stroke-linecap="round" stroke-linejoin="round"/>
<path fill-rule="evenodd" clip-rule="evenodd" d="M239 7C239 3.13401 242.134 0 246 0H405C406.864 0 408.652 0.743651 409.966 2.06609L487.966 80.5661C489.269 81.8775 490 83.6512 490 85.5V310.5C490 314.366 486.866 317.5 483 317.5H419.191L421.893 313.616C423.583 311.185 424.49 308.296 424.49 305.335V303.5H476V92.5H405C401.134 92.5 398 89.366 398 85.5V14H253V32.2036L241.543 44.7346L239 45.1656V37V7ZM412 23.9761L466.177 78.5H412V23.9761Z" fill="#2BB17A"/>
<path fill-rule="evenodd" clip-rule="evenodd" d="M364 159C364 169.493 355.493 178 345 178C341.593 178 338.395 177.103 335.63 175.533L303.701 206.643C306.385 209.853 308 213.988 308 218.5C308 228.717 299.717 237 289.5 237C279.283 237 271 228.717 271 218.5C271 217.301 271.114 216.128 271.332 214.993L257.539 207.33C254.093 210.83 249.3 213 244 213C240.752 213 237.695 212.185 235.021 210.749L206.054 236.064C206.668 237.932 207 239.927 207 242C207 252.493 198.493 261 188 261C177.507 261 169 252.493 169 242C169 231.507 177.507 223 188 223C192.04 223 195.785 224.261 198.864 226.411L226.771 202.021C225.635 199.584 225 196.866 225 194C225 183.507 233.507 175 244 175C254.493 175 263 183.507 263 194C263 194.862 262.943 195.711 262.831 196.543L277.308 204.585C280.564 201.731 284.83 200 289.5 200C290.692 200 291.858 200.113 292.987 200.328L327.587 166.615C326.566 164.283 326 161.708 326 159C326 148.507 334.507 140 345 140C355.493 140 364 148.507 364 159ZM195 242.5C195 246.642 191.642 250 187.5 250C183.358 250 180 246.642 180 242.5C180 238.358 183.358 235 187.5 235C191.642 235 195 238.358 195 242.5ZM244.5 201C248.642 201 252 197.642 252 193.5C252 189.358 248.642 186 244.5 186C240.358 186 237 189.358 237 193.5C237 197.642 240.358 201 244.5 201ZM296 218.5C296 222.642 292.642 226 288.5 226C284.358 226 281 222.642 281 218.5C281 214.358 284.358 211 288.5 211C292.642 211 296 214.358 296 218.5ZM345.5 166C349.642 166 353 162.642 353 158.5C353 154.358 349.642 151 345.5 151C341.358 151 338 154.358 338 158.5C338 162.642 341.358 166 345.5 166Z" fill="white"/>
<rect x="226" y="283" width="33" height="61" rx="3" fill="white"/>
<rect x="277" y="254" width="33" height="90" rx="3" fill="white"/>
<rect x="331" y="201" width="33" height="143" rx="3" fill="white"/>
</svg>
