<svg width="890" height="911" viewBox="0 0 890 911" fill="none" xmlns="http://www.w3.org/2000/svg">
<path d="M431.884 744.442L359.868 832.567L453.679 897.002L540.856 802.244V719.804L668.78 663.897L744.587 554.925V452.586L833.66 350.247V277.283L744.587 208.109H656.462L637.51 192.948L553.175 166.416L509.586 148.411V115.246L482.106 72.6048L451.784 105.77L395.876 115.246L313.436 128.512V90.6089L300.17 52.7056L212.993 72.6048V115.246L171.299 148.411L155.19 137.04H97.3873V241.275L14 264.017V335.085L110.654 394.783L171.299 368.251L199.726 421.316L277.428 444.058L291.642 501.86L339.969 533.13V647.788H377.872L431.884 744.442Z" fill="#0C3248" stroke="#0C3248" stroke-width="26.5323" stroke-linecap="round" stroke-linejoin="round"/>
<path fill-rule="evenodd" clip-rule="evenodd" d="M433.826 12.722C433.826 5.69583 439.522 0 446.548 0H735.519C738.907 0 742.155 1.35153 744.543 3.75497L886.303 146.423C888.671 148.806 890 152.03 890 155.39V564.311C890 571.337 884.304 577.033 877.278 577.033H761.309L766.22 569.974C769.293 565.557 770.94 560.305 770.94 554.925V551.589H864.556V168.112H735.519C728.493 168.112 722.797 162.416 722.797 155.39V25.444H459.27V58.5276L438.448 81.3019L433.826 82.0853V67.2448V12.722ZM748.241 43.5749L846.703 142.668H748.241V43.5749Z" fill="#0C3248"/>
<path fill-rule="evenodd" clip-rule="evenodd" d="M661.006 288.971C661.006 308.042 645.546 323.502 626.475 323.502C620.282 323.502 614.47 321.872 609.445 319.018L551.417 375.558C556.295 381.393 559.23 388.908 559.23 397.108C559.23 415.677 544.177 430.73 525.608 430.73C507.039 430.73 491.985 415.677 491.985 397.108C491.985 394.929 492.193 392.798 492.589 390.734L467.521 376.807C461.258 383.168 452.547 387.112 442.915 387.112C437.012 387.112 431.455 385.631 426.595 383.02L373.951 429.029C375.066 432.423 375.67 436.05 375.67 439.817C375.67 458.888 360.21 474.348 341.139 474.348C322.068 474.348 306.607 458.888 306.607 439.817C306.607 420.746 322.068 405.286 341.139 405.286C348.481 405.286 355.288 407.578 360.883 411.485L411.602 367.159C409.537 362.73 408.383 357.79 408.383 352.581C408.383 333.51 423.844 318.05 442.915 318.05C461.986 318.05 477.446 333.51 477.446 352.581C477.446 354.148 477.341 355.69 477.139 357.202L503.45 371.819C509.367 366.631 517.12 363.485 525.608 363.485C527.774 363.485 529.892 363.69 531.944 364.082L594.828 302.81C592.973 298.573 591.943 293.892 591.943 288.971C591.943 269.9 607.404 254.44 626.475 254.44C645.546 254.44 661.006 269.9 661.006 288.971ZM353.86 440.726C353.86 448.254 347.758 454.357 340.23 454.357C332.702 454.357 326.599 448.254 326.599 440.726C326.599 433.198 332.702 427.095 340.23 427.095C347.758 427.095 353.86 433.198 353.86 440.726ZM443.822 365.303C451.35 365.303 457.453 359.2 457.453 351.672C457.453 344.144 451.35 338.041 443.822 338.041C436.294 338.041 430.191 344.144 430.191 351.672C430.191 359.2 436.294 365.303 443.822 365.303ZM537.42 397.108C537.42 404.636 531.318 410.739 523.79 410.739C516.262 410.739 510.159 404.636 510.159 397.108C510.159 389.58 516.262 383.477 523.79 383.477C531.318 383.477 537.42 389.58 537.42 397.108ZM627.383 301.693C634.911 301.693 641.014 295.59 641.014 288.062C641.014 280.534 634.911 274.431 627.383 274.431C619.855 274.431 613.753 280.534 613.753 288.062C613.753 295.59 619.855 301.693 627.383 301.693Z" fill="white"/>
<rect x="410.198" y="514.332" width="59.9751" height="110.863" rx="5.45228" fill="white"/>
<rect x="502.886" y="461.626" width="59.9751" height="163.568" rx="5.45228" fill="white"/>
<rect x="601.028" y="365.303" width="59.9751" height="259.892" rx="5.45228" fill="white"/>
</svg>
